<mxfile host="65bd71144e">
    <diagram id="53IQXVl9icCSp_Kw3Ib1" name="Page-1">
        <mxGraphModel dx="3013" dy="2137" grid="1" gridSize="10" guides="1" tooltips="1" connect="1" arrows="1" fold="1" page="1" pageScale="1" pageWidth="1100" pageHeight="850" math="0" shadow="0">
            <root>
                <mxCell id="0"/>
                <mxCell id="1" parent="0"/>
                <mxCell id="DcPs09MuvwvrMIkzpMma-1" value="" style="rounded=0;whiteSpace=wrap;html=1;sketch=1;curveFitting=1;jiggle=2;strokeWidth=5;" parent="1" vertex="1">
                    <mxGeometry x="-110" y="-50" width="1330" height="600" as="geometry"/>
                </mxCell>
                <mxCell id="9" value="" style="rounded=0;whiteSpace=wrap;html=1;fillColor=#f8cecc;strokeColor=#b85450;sketch=1;curveFitting=1;jiggle=2;fillStyle=dashed;strokeWidth=3;align=center;" parent="1" vertex="1">
                    <mxGeometry x="310" y="340" width="480" height="170" as="geometry"/>
                </mxCell>
                <mxCell id="HIq26qkVBO2vfs1bq9Pp-42" value="" style="endArrow=none;html=1;rounded=0;strokeWidth=5;endFill=0;entryX=0;entryY=0.5;entryDx=0;entryDy=0;sketch=1;curveFitting=1;jiggle=2;exitX=1.002;exitY=0.502;exitDx=0;exitDy=0;exitPerimeter=0;strokeColor=#CCCCCC;" parent="1" source="HIq26qkVBO2vfs1bq9Pp-34" target="HIq26qkVBO2vfs1bq9Pp-35" edge="1">
                    <mxGeometry width="50" height="50" relative="1" as="geometry">
                        <mxPoint x="140" y="414.28999999999996" as="sourcePoint"/>
                        <mxPoint x="330" y="415.28999999999996" as="targetPoint"/>
                    </mxGeometry>
                </mxCell>
                <mxCell id="HIq26qkVBO2vfs1bq9Pp-3" value="&lt;b&gt;&lt;font style=&quot;font-size: 32px;&quot;&gt;main&lt;/font&gt;&lt;/b&gt;" style="text;html=1;align=left;verticalAlign=middle;resizable=0;points=[];autosize=1;strokeColor=none;fillColor=none;sketch=1;curveFitting=1;jiggle=2;fontFamily=Courier New;" parent="1" vertex="1">
                    <mxGeometry x="-60" y="204.5" width="100" height="50" as="geometry"/>
                </mxCell>
                <mxCell id="HIq26qkVBO2vfs1bq9Pp-17" value="" style="endArrow=block;html=1;rounded=0;strokeWidth=5;endFill=1;exitX=0.974;exitY=0.468;exitDx=0;exitDy=0;exitPerimeter=0;entryX=0;entryY=0.5;entryDx=0;entryDy=0;sketch=1;curveFitting=1;jiggle=2;" parent="1" source="HIq26qkVBO2vfs1bq9Pp-3" edge="1">
                    <mxGeometry width="50" height="50" relative="1" as="geometry">
                        <mxPoint x="100" y="229.41" as="sourcePoint"/>
                        <mxPoint x="199.9999999999941" y="229.5" as="targetPoint"/>
                    </mxGeometry>
                </mxCell>
                <mxCell id="HIq26qkVBO2vfs1bq9Pp-2" value="" style="ellipse;whiteSpace=wrap;html=1;aspect=fixed;strokeWidth=5;sketch=1;curveFitting=1;jiggle=2;" parent="1" vertex="1">
                    <mxGeometry x="200" y="190" width="80" height="79" as="geometry"/>
                </mxCell>
                <mxCell id="HIq26qkVBO2vfs1bq9Pp-33" style="edgeStyle=orthogonalEdgeStyle;rounded=0;orthogonalLoop=1;jettySize=auto;html=1;exitX=1;exitY=0.5;exitDx=0;exitDy=0;strokeWidth=5;endArrow=none;endFill=0;sketch=1;curveFitting=1;jiggle=2;strokeColor=#CCCCCC;" parent="1" source="HIq26qkVBO2vfs1bq9Pp-48" edge="1">
                    <mxGeometry relative="1" as="geometry">
                        <mxPoint x="1160" y="230" as="targetPoint"/>
                        <mxPoint x="1180.000000000006" y="230" as="sourcePoint"/>
                    </mxGeometry>
                </mxCell>
                <mxCell id="HIq26qkVBO2vfs1bq9Pp-34" value="&lt;b&gt;&lt;font style=&quot;font-size: 32px;&quot;&gt;feature &lt;br&gt;branches&lt;/font&gt;&lt;/b&gt;" style="text;html=1;align=left;verticalAlign=middle;resizable=0;points=[];autosize=1;strokeColor=none;fillColor=none;sketch=1;curveFitting=1;jiggle=2;fontFamily=Courier New;" parent="1" vertex="1">
                    <mxGeometry x="-60" y="370" width="180" height="90" as="geometry"/>
                </mxCell>
                <mxCell id="HIq26qkVBO2vfs1bq9Pp-43" style="edgeStyle=orthogonalEdgeStyle;rounded=0;orthogonalLoop=1;jettySize=auto;html=1;exitX=1;exitY=0.5;exitDx=0;exitDy=0;endArrow=none;endFill=0;strokeWidth=5;sketch=1;curveFitting=1;jiggle=2;strokeColor=#CCCCCC;" parent="1" source="HIq26qkVBO2vfs1bq9Pp-37" edge="1">
                    <mxGeometry relative="1" as="geometry">
                        <mxPoint x="1160" y="414" as="targetPoint"/>
                    </mxGeometry>
                </mxCell>
                <mxCell id="HIq26qkVBO2vfs1bq9Pp-49" value="" style="edgeStyle=orthogonalEdgeStyle;rounded=0;orthogonalLoop=1;jettySize=auto;html=1;exitX=1;exitY=0.5;exitDx=0;exitDy=0;entryX=0;entryY=0.5;entryDx=0;entryDy=0;strokeWidth=5;endArrow=block;endFill=1;sketch=1;curveFitting=1;jiggle=2;" parent="1" target="HIq26qkVBO2vfs1bq9Pp-48" edge="1">
                    <mxGeometry relative="1" as="geometry">
                        <mxPoint x="280.0000000000059" y="229.5" as="sourcePoint"/>
                        <mxPoint x="759.9999999999727" y="230" as="targetPoint"/>
                    </mxGeometry>
                </mxCell>
                <mxCell id="HIq26qkVBO2vfs1bq9Pp-59" value="&lt;p style=&quot;line-height: 120%; font-size: 20px;&quot;&gt;&lt;span style=&quot;font-size: 20px;&quot;&gt;&lt;b style=&quot;font-size: 20px;&quot;&gt;.env file(s) modified&lt;/b&gt;&lt;/span&gt;&lt;/p&gt;" style="shape=note;whiteSpace=wrap;html=1;backgroundOutline=1;darkOpacity=0.05;strokeWidth=3;labelPosition=center;verticalLabelPosition=middle;align=center;verticalAlign=bottom;sketch=1;curveFitting=1;jiggle=2;fontSize=20;" parent="1" vertex="1">
                    <mxGeometry x="380" y="70" width="120" height="110" as="geometry"/>
                </mxCell>
                <mxCell id="HIq26qkVBO2vfs1bq9Pp-60" style="rounded=0;orthogonalLoop=1;jettySize=auto;html=1;exitX=0.5;exitY=1;exitDx=0;exitDy=0;exitPerimeter=0;endArrow=none;endFill=0;dashed=1;dashPattern=1 1;strokeWidth=3;sketch=1;curveFitting=1;jiggle=2;strokeColor=#000000;" parent="1" source="HIq26qkVBO2vfs1bq9Pp-59" edge="1">
                    <mxGeometry relative="1" as="geometry">
                        <mxPoint x="1020" y="645" as="sourcePoint"/>
                        <mxPoint x="300" y="320" as="targetPoint"/>
                    </mxGeometry>
                </mxCell>
                <mxCell id="xTmbXcm-KiLkeivZunYo-2" value="" style="endArrow=none;html=1;rounded=0;strokeWidth=5;endFill=0;sketch=1;curveFitting=1;jiggle=2;" parent="1" target="HIq26qkVBO2vfs1bq9Pp-48" edge="1">
                    <mxGeometry width="50" height="50" relative="1" as="geometry">
                        <mxPoint x="839.9995912543927" y="230.17856960381437" as="sourcePoint"/>
                        <mxPoint x="1120" y="230" as="targetPoint"/>
                    </mxGeometry>
                </mxCell>
                <mxCell id="HIq26qkVBO2vfs1bq9Pp-48" value="" style="ellipse;whiteSpace=wrap;html=1;aspect=fixed;strokeWidth=5;sketch=1;curveFitting=1;jiggle=2;fillStyle=solid;" parent="1" vertex="1">
                    <mxGeometry x="840" y="190" width="80" height="79" as="geometry"/>
                </mxCell>
                <mxCell id="xTmbXcm-KiLkeivZunYo-4" value="trigger: &lt;span style=&quot;font-weight: normal;&quot;&gt;open/modify PR&lt;/span&gt;&lt;div&gt;&lt;font color=&quot;#000000&quot;&gt;&lt;br&gt;&lt;/font&gt;&lt;div&gt;if: &lt;span style=&quot;font-weight: normal;&quot;&gt;.env file(s) modified&lt;/span&gt;&lt;/div&gt;&lt;div&gt;&lt;br&gt;&lt;/div&gt;&lt;div&gt;run: &lt;span style=&quot;font-weight: normal;&quot;&gt;integration&amp;nbsp;tests&lt;/span&gt;&lt;/div&gt;&lt;/div&gt;" style="shape=note;whiteSpace=wrap;html=1;backgroundOutline=1;darkOpacity=0.05;strokeWidth=3;labelPosition=center;verticalLabelPosition=middle;align=left;verticalAlign=top;sketch=1;curveFitting=1;jiggle=2;fontSize=20;fontStyle=1;spacingLeft=8;spacingTop=8;fillColor=#f8cecc;strokeColor=#b85450;fillStyle=dashed;" parent="1" vertex="1">
                    <mxGeometry x="680" y="-10" width="310" height="150" as="geometry"/>
                </mxCell>
                <mxCell id="xTmbXcm-KiLkeivZunYo-5" style="rounded=0;orthogonalLoop=1;jettySize=auto;html=1;endArrow=none;endFill=0;dashed=1;dashPattern=1 1;strokeWidth=3;sketch=1;curveFitting=1;jiggle=2;entryX=0;entryY=1;entryDx=0;entryDy=0;entryPerimeter=0;fillColor=#f8cecc;strokeColor=#b85450;exitX=0.5;exitY=0;exitDx=0;exitDy=0;" parent="1" source="9" target="xTmbXcm-KiLkeivZunYo-4" edge="1">
                    <mxGeometry relative="1" as="geometry">
                        <mxPoint x="880" y="190" as="sourcePoint"/>
                        <mxPoint x="970.0000000000005" y="204" as="targetPoint"/>
                    </mxGeometry>
                </mxCell>
                <mxCell id="xTmbXcm-KiLkeivZunYo-1" style="edgeStyle=orthogonalEdgeStyle;rounded=0;orthogonalLoop=1;jettySize=auto;html=1;exitX=0.5;exitY=1;exitDx=0;exitDy=0;entryX=0.5;entryY=0;entryDx=0;entryDy=0;strokeWidth=5;endArrow=block;endFill=1;curved=1;sketch=1;curveFitting=1;jiggle=2;" parent="1" source="HIq26qkVBO2vfs1bq9Pp-2" target="HIq26qkVBO2vfs1bq9Pp-35" edge="1">
                    <mxGeometry relative="1" as="geometry"/>
                </mxCell>
                <mxCell id="HIq26qkVBO2vfs1bq9Pp-39" style="edgeStyle=orthogonalEdgeStyle;rounded=0;orthogonalLoop=1;jettySize=auto;html=1;exitX=1;exitY=0.5;exitDx=0;exitDy=0;entryX=0;entryY=0.5;entryDx=0;entryDy=0;strokeWidth=5;endArrow=block;endFill=1;sketch=1;curveFitting=1;jiggle=2;" parent="1" source="HIq26qkVBO2vfs1bq9Pp-35" target="HIq26qkVBO2vfs1bq9Pp-36" edge="1">
                    <mxGeometry relative="1" as="geometry"/>
                </mxCell>
                <mxCell id="HIq26qkVBO2vfs1bq9Pp-35" value="" style="ellipse;whiteSpace=wrap;html=1;aspect=fixed;strokeWidth=5;fillColor=#B3B3B3;sketch=1;curveFitting=1;jiggle=2;gradientColor=#FFCC99;gradientDirection=south;fillStyle=zigzag;" parent="1" vertex="1">
                    <mxGeometry x="340" y="375" width="80" height="80" as="geometry"/>
                </mxCell>
                <mxCell id="HIq26qkVBO2vfs1bq9Pp-40" style="edgeStyle=orthogonalEdgeStyle;rounded=0;orthogonalLoop=1;jettySize=auto;html=1;exitX=1;exitY=0.5;exitDx=0;exitDy=0;entryX=0;entryY=0.5;entryDx=0;entryDy=0;strokeWidth=5;endArrow=block;endFill=1;sketch=1;curveFitting=1;jiggle=2;" parent="1" source="HIq26qkVBO2vfs1bq9Pp-36" target="HIq26qkVBO2vfs1bq9Pp-37" edge="1">
                    <mxGeometry relative="1" as="geometry"/>
                </mxCell>
                <mxCell id="HIq26qkVBO2vfs1bq9Pp-36" value="" style="ellipse;whiteSpace=wrap;html=1;aspect=fixed;strokeWidth=5;fillColor=#B3B3B3;sketch=1;curveFitting=1;jiggle=2;gradientColor=#FFCC99;fillStyle=zigzag;" parent="1" vertex="1">
                    <mxGeometry x="510" y="375" width="80" height="80" as="geometry"/>
                </mxCell>
                <mxCell id="xTmbXcm-KiLkeivZunYo-3" style="edgeStyle=orthogonalEdgeStyle;rounded=0;orthogonalLoop=1;jettySize=auto;html=1;exitX=0.5;exitY=0;exitDx=0;exitDy=0;entryX=0.5;entryY=1;entryDx=0;entryDy=0;strokeWidth=5;sketch=1;curveFitting=1;jiggle=2;endArrow=block;endFill=1;curved=1;" parent="1" source="HIq26qkVBO2vfs1bq9Pp-37" target="HIq26qkVBO2vfs1bq9Pp-48" edge="1">
                    <mxGeometry relative="1" as="geometry"/>
                </mxCell>
                <mxCell id="HIq26qkVBO2vfs1bq9Pp-37" value="" style="ellipse;whiteSpace=wrap;html=1;aspect=fixed;strokeWidth=5;fillColor=#B3B3B3;sketch=1;curveFitting=1;jiggle=2;strokeColor=#000000;fillStyle=zigzag;" parent="1" vertex="1">
                    <mxGeometry x="680" y="375" width="80" height="80" as="geometry"/>
                </mxCell>
                <mxCell id="12" value="&lt;b&gt;&lt;font style=&quot;font-size: 32px; color: rgb(184, 84, 80);&quot;&gt;pull request&lt;/font&gt;&lt;/b&gt;" style="text;html=1;align=left;verticalAlign=middle;resizable=0;points=[];autosize=1;strokeColor=none;fillColor=none;sketch=1;curveFitting=1;jiggle=2;fontFamily=Courier New;" parent="1" vertex="1">
                    <mxGeometry x="425" y="460" width="250" height="50" as="geometry"/>
                </mxCell>
            </root>
        </mxGraphModel>
    </diagram>
</mxfile>